<?xml version="1.0" encoding="utf-8"?>
<!-- Generator: Adobe Illustrator 19.1.0, SVG Export Plug-In . SVG Version: 6.00 Build 0)  -->
<svg version="1.1" id="Layer_1" xmlns="http://www.w3.org/2000/svg" xmlns:xlink="http://www.w3.org/1999/xlink" x="0px" y="0px"
	 viewBox="0 0 42 40" style="enable-background:new 0 0 42 40;" xml:space="preserve">
<style type="text/css">
	.st0{fill:#FBB040;}
</style>
<path id="tools-5-icon" class="st0" d="M38.3,32.8L19,13.2c-0.9-0.9-1.4-2.3-1.3-3.6c0.2-2.5-0.7-5.1-2.6-7c-2.5-2.5-6-3.2-9.1-2.1
	l5.6,5.7c0.1,2.2-3.3,5.7-5.5,5.5L0.5,6c-1.1,3.1-0.4,6.8,2.1,9.3c1.7,1.7,4,2.6,6.3,2.6c0.6,0,2.6-0.4,4.2,1.3l19.4,19.6
	c1.6,1.6,4.3,1.6,5.9,0C40,37.1,40,34.4,38.3,32.8z M35.2,37.3c-0.9,0-1.7-0.8-1.7-1.7c0-1,0.8-1.7,1.7-1.7c0.9,0,1.7,0.8,1.7,1.7
	C36.9,36.5,36.1,37.3,35.2,37.3z M22.8,13l12-12.1L42,8.2L30,20.3l-1.8-1.8l9.8-9.9c0.3-0.3,0.3-0.8,0-1.1c-0.3-0.3-0.8-0.3-1.1,0
	l-9.8,9.9l-1.6-1.7l9.8-9.9c0.3-0.3,0.3-0.8,0-1.1c-0.3-0.3-0.8-0.3-1.1,0l-9.8,9.9L22.8,13z M20.1,30.4l-7.7,7.8l-9.1,1.7l1.8-9.1
	l7.7-7.8l1.8,1.8l-7,7c-0.3,0.3-0.3,0.8,0,1.1c0.3,0.3,0.8,0.3,1.1,0l7-7l1.6,1.7l-7,7.1c-0.3,0.3-0.3,0.8,0,1.1
	c0.3,0.3,0.8,0.3,1.1,0l7-7.1L20.1,30.4z"/>
</svg>
