<?xml version="1.0" encoding="utf-8"?>
<!-- Generator: Adobe Illustrator 19.1.0, SVG Export Plug-In . SVG Version: 6.00 Build 0)  -->
<svg version="1.1" id="Layer_1" xmlns="http://www.w3.org/2000/svg" xmlns:xlink="http://www.w3.org/1999/xlink" x="0px" y="0px"
	 viewBox="0 0 70 35" style="enable-background:new 0 0 70 35;" xml:space="preserve">
<style type="text/css">
	.st0{fill:#FBB040;}
</style>
<path class="st0" d="M69.5,25.4c-0.6-1.3-1.9-2.2-3.9-2.6c-5-1.2-5-1.6-4.4-2.7c2.1-3.9,3.7-9,1.4-12.8c-1.3-2.2-3.7-3.4-6.5-3.4
	c-2.8,0-5.2,1.3-6.5,3.5c-1.9,3.1-1.4,7.7,1.4,12.8c0.6,1.1,0.6,1.5-4.5,2.6c-1.8,0.4-3,1.1-3.6,2.2c-2.5-1-3.9-2.4-2.5-5.1
	c6.9-13,1.8-19.9-5.5-19.9c-7.5,0-12.4,7.2-5.5,19.9c1.5,2.7,0.1,4.1-2.3,5c-0.7-1.1-1.8-1.8-3.6-2.2c-5-1.2-5-1.6-4.4-2.7
	c2.1-3.9,3.7-9,1.4-12.8c-1.3-2.2-3.7-3.4-6.5-3.4c-2.8,0-5.2,1.3-6.5,3.5C5.5,10.4,6,15,8.8,20.1c0.6,1.1,0.6,1.5-4.5,2.6
	c-2,0.5-3.2,1.3-3.9,2.6C-0.1,26.7,0,28.1,0,31.5h17.3c-0.1,1,0,2.1,0,3.4h35.3c0-1.3,0-2.4,0-3.4H70C70,28.1,70.1,26.7,69.5,25.4z
	 M2.7,28.8c0-2.4,0.2-3,2.3-3.5c2.9-0.7,5.7-1.3,6.6-3.2c0.4-1,0.3-2.1-0.3-3.3c-2.3-4.2-2.8-7.9-1.5-10.1c0.8-1.4,2.3-2.1,4.2-2.1
	c1.9,0,3.4,0.7,4.2,2.1c1.7,2.8,0.1,7.2-1.5,10.2c-0.7,1.2-0.8,2.3-0.3,3.3c0.9,2,3.6,2.6,6.5,3.2c0.6,0.1,1,0.3,1.3,0.4
	c-0.7,0.2-1.5,0.4-2.2,0.5c-2.3,0.5-3.4,1.3-4,2.5H2.7z M51.9,28.8c-0.6-1.2-1.8-2-4-2.5c-0.7-0.2-1.4-0.3-2.1-0.5
	c0.3-0.2,0.8-0.3,1.3-0.5c2.9-0.7,5.7-1.3,6.6-3.2c0.4-1,0.3-2.1-0.3-3.3c-2.3-4.2-2.8-7.9-1.5-10.1c0.8-1.4,2.3-2.1,4.2-2.1
	c1.9,0,3.4,0.7,4.2,2.1c1.7,2.8,0.1,7.2-1.5,10.2c-0.7,1.2-0.8,2.3-0.3,3.3c0.9,2,3.6,2.6,6.5,3.2c2.1,0.5,2.3,1.1,2.3,3.5H51.9z"/>
</svg>
