<?xml version="1.0" encoding="utf-8"?>
<!-- Generator: Adobe Illustrator 19.1.0, SVG Export Plug-In . SVG Version: 6.00 Build 0)  -->
<svg version="1.1" id="Layer_1" xmlns="http://www.w3.org/2000/svg" xmlns:xlink="http://www.w3.org/1999/xlink" x="0px" y="0px"
	 viewBox="0 0 45 40" style="enable-background:new 0 0 45 40;" xml:space="preserve">
<style type="text/css">
	.st0{fill:#FBB040;}
</style>
<g>
	<path class="st0" d="M41.8,0H3.2C1.4,0,0,1.4,0,3.2v26.1c0,1.8,1.4,3.2,3.2,3.2h17.1c0.3,3.2-2,4-3.8,4.2h-2
		c-0.9,0-1.6,0.7-1.6,1.6c0,0.9,0.7,1.6,1.6,1.6h16.2c0.9,0,1.6-0.7,1.6-1.6c0-0.8-0.6-1.5-1.4-1.6l0,0c0,0,0,0-0.1,0
		c0,0-0.1,0-0.1,0h-1.8c-1.8-0.2-4.1-1.1-3.8-4.2h16.7c1.8,0,3.2-1.4,3.2-3.2V3.2C45,1.4,43.6,0,41.8,0z M41,28.5H4V4.3h37V28.5z"/>
	<polygon class="st0" points="18.1,20.4 11.1,17.3 11.1,17.3 18.1,14.2 18.1,12.1 8.8,16.4 8.8,18.1 18.1,22.4 	"/>
	<polygon class="st0" points="25.6,9.2 23.6,9.2 19.5,23.2 21.4,23.2 	"/>
	<polygon class="st0" points="36,16.4 26.7,12.1 26.7,14.2 33.8,17.3 33.8,17.3 26.7,20.4 26.7,22.4 36,18.2 	"/>
</g>
</svg>
