<?xml version="1.0" encoding="utf-8"?>
<!-- Generator: Adobe Illustrator 19.1.0, SVG Export Plug-In . SVG Version: 6.00 Build 0)  -->
<svg version="1.1" id="Layer_1" xmlns="http://www.w3.org/2000/svg" xmlns:xlink="http://www.w3.org/1999/xlink" x="0px" y="0px"
	 viewBox="0 0 30 30" style="enable-background:new 0 0 30 30;" xml:space="preserve">
<style type="text/css">
	.st0{fill:#FBB040;}
	.st1{fill:#FFFFFF;}
</style>
<rect x="0" y="0" class="st0" width="30" height="30"/>
<path class="st1" d="M16.7,19.1c0.4-0.1,0.8-0.1,1.1-0.2c1.7-0.4,2.6-1.5,2.9-3.2c0.1-0.7,0.1-1.5-0.1-2.2c-0.1-0.4-0.3-0.7-0.6-1.1
	c-0.1-0.1-0.1-0.2,0-0.3c0.2-0.7,0.1-1.4-0.1-2.1c0-0.1-0.1-0.1-0.2-0.1c-0.4,0-0.8,0.2-1.2,0.3c-0.3,0.1-0.6,0.3-0.9,0.5
	c-0.1,0.1-0.2,0.1-0.3,0c-1.4-0.4-2.8-0.4-4.2,0c-0.1,0-0.2,0-0.3-0.1c-0.6-0.4-1.2-0.7-1.8-0.8c0,0,0,0,0,0c-0.4-0.1-0.4,0-0.5,0.3
	c-0.2,0.6-0.2,1.3,0,1.9c0,0.1,0,0.1,0,0.2c-0.8,1-1,2.1-0.8,3.3c0.1,0.7,0.3,1.4,0.8,1.9c0.6,0.7,1.4,1.1,2.2,1.3
	c0.3,0.1,0.6,0.1,1,0.2c-0.3,0.3-0.5,0.7-0.5,1.1c0,0.1-0.1,0.1-0.1,0.1c-1,0.4-1.9,0.2-2.5-0.8c-0.3-0.5-0.7-0.8-1.2-0.9
	c-0.2,0-0.3,0-0.5,0c-0.2,0.1-0.2,0.1-0.1,0.3c0.1,0.1,0.1,0.2,0.2,0.2c0.4,0.3,0.8,0.7,0.9,1.1c0.4,1,1.2,1.4,2.2,1.4
	c0.3,0,0.5,0,0.8-0.1c0.1,0,0.2,0,0.2,0.1c0,0.5,0,1,0,1.4c0,0.4-0.3,0.6-0.6,0.5c-0.9-0.3-1.8-0.7-2.5-1.3
	c-1.8-1.3-2.9-3.1-3.4-5.3c-0.5-2.7,0.1-5.2,1.8-7.4c1.4-1.7,3.2-2.8,5.4-3.2c2.7-0.5,5.1,0.2,7.3,1.9c1.6,1.3,2.7,3,3.1,5
	c0.6,2.7,0,5.1-1.7,7.3C21,22,19.6,23,18,23.5c-0.1,0-0.2,0.1-0.2,0.1c-0.3,0-0.5-0.1-0.5-0.4c0-0.7,0-1.3,0-2
	C17.3,20.4,17.3,19.7,16.7,19.1z"/>
</svg>
