<?xml version="1.0" encoding="utf-8"?>
<!-- Generator: Adobe Illustrator 19.1.0, SVG Export Plug-In . SVG Version: 6.00 Build 0)  -->
<svg version="1.1" id="Layer_1" xmlns="http://www.w3.org/2000/svg" xmlns:xlink="http://www.w3.org/1999/xlink" x="0px" y="0px"
	 viewBox="0 0 30 30" style="enable-background:new 0 0 30 30;" xml:space="preserve">
<style type="text/css">
	.st0{fill:#FBB040;}
	.st1{fill:#FFFFFF;}
</style>
<rect x="0" y="0" class="st0" width="30" height="30"/>
<path id="linkedin-icon_1_" class="st1" d="M11.9,10.5c0,0.8-0.7,1.5-1.5,1.5S9,11.3,9,10.5C9,9.7,9.7,9,10.5,9
	C11.3,9,11.9,9.7,11.9,10.5z M11.7,13H9.2v8h2.5V13z M15.7,13h-2.4v8h2.4c0,0,0-3,0-4.2c0-1.1,0.5-1.8,1.5-1.8
	c0.9,0,1.3,0.6,1.3,1.8c0,1.2,0,4.2,0,4.2H21c0,0,0-2.9,0-5.1s-1.2-3.2-2.9-3.2c-1.7,0-2.4,1.3-2.4,1.3L15.7,13L15.7,13z"/>
</svg>
