<?xml version="1.0" encoding="utf-8"?>
<!-- Generator: Adobe Illustrator 19.1.0, SVG Export Plug-In . SVG Version: 6.00 Build 0)  -->
<svg version="1.1" id="Layer_1" xmlns="http://www.w3.org/2000/svg" xmlns:xlink="http://www.w3.org/1999/xlink" x="0px" y="0px"
	 viewBox="0 0 48 18" style="enable-background:new 0 0 48 18;" xml:space="preserve">
<style type="text/css">
	.st0{fill:#FFFFFF;}
</style>
<g>
	<path class="st0" d="M15.8,18l8-18H25l-8,18H15.8z"/>
	<path class="st0" d="M25.2,18l8-18h1.2l-8,18H25.2z"/>
	<path class="st0" d="M46.8,16.2l-1.7-3.7h-9l-1.6,3.7h-1.2l6.7-15h1.3l6.7,15H46.8z M44.7,11.5l-4-9.1l-4,9.1H44.7z"/>
	<path class="st0" d="M16.7,1.3L16.7,1.3h-0.8h-0.3h-0.1H8.9v1H15L10.2,13c-0.8,1.6-2.3,2.4-4.3,2.4c-2.8,0-4.9-2-4.9-4.8H0
		c0,3.5,2.5,5.9,5.9,5.9c2.4,0,4.3-1.1,5.3-2.9l0,0L16.7,1.3z"/>
</g>
</svg>
